<svg width="89" height="89" viewBox="0 0 89 89" fill="none" xmlns="http://www.w3.org/2000/svg">
<path d="M21.5529 25.9881C19.2686 27.9016 15.2339 29.6668 11.1102 29.9783C7.28323 30.275 2.80356 29.3553 2.31406 30.7793C2.23989 31.0018 2.25473 31.254 2.40306 31.5655C3.61939 34.2948 10.8581 33.1526 15.6196 35.793C22.9917 39.887 24.1932 53.1035 24.7717 59.5856C25.1871 64.1395 25.2019 71.1853 26.5369 71.3188C26.7297 71.3336 26.8929 71.215 26.9671 71.1556C28.5542 69.88 29.3404 44.248 33.5679 38.9673C34.5766 37.7065 36.0896 35.5408 38.9079 33.9091C44.1441 30.8683 50.5224 31.4023 50.6411 29.83C50.6559 29.7113 50.6262 29.563 50.4631 29.3108C48.7572 26.7743 42.2899 28.6136 38.5964 26.537C31.5209 22.5616 29.7557 1.48346 29.3552 1.29063C29.1031 1.17196 28.9547 1.17196 28.7767 1.20163C25.4392 1.66146 29.7261 19.1203 21.5529 25.9881Z" fill="#D0FFF7"/>
<path d="M68.337 25.9288C65.5632 23.5407 60.7572 25.1872 58.2207 22.1463C57.9685 21.8496 57.8202 21.5827 57.8498 21.3008C58.0278 19.5208 64.7325 20.9448 68.248 17.6963C72.8463 13.4391 69.9687 3.01132 72.0453 2.68498C72.1937 2.65532 72.3123 2.69982 72.52 2.77398C75.8723 4.03482 72.5348 13.8396 76.7772 17.192C79.1505 19.061 83.6598 18.7198 86.3743 21.0783C86.5375 21.2118 86.76 21.4343 86.7452 21.7013C86.671 23.0956 80.4262 21.9831 76.9255 24.9498C72.0305 29.1031 74.122 39.8425 72.698 39.9018C72.6683 39.9018 72.609 39.9018 72.5052 39.8425C70.0725 38.5668 72.1788 29.2515 68.337 25.9288Z" fill="#FFA78F" fill-opacity="0.939"/>
<path d="M55.1649 56.2631C60.0599 52.3471 56.4554 40.9254 60.0451 39.9909C60.2379 39.9464 60.4159 39.9019 60.6384 39.9464C63.4567 40.6139 59.2886 53.6079 64.4506 57.9689C68.6781 61.5289 77.8747 58.2359 78.2456 60.0604C78.2752 60.1643 78.2456 60.2533 78.2159 60.3719C77.6522 62.8194 71.1404 62.6563 67.4024 65.0296C59.4814 70.0729 62.0031 87.8136 59.6742 87.8136C59.6297 87.8136 59.5852 87.7988 59.4962 87.7691C55.5802 86.5824 59.3331 72.2534 52.7026 65.9048C48.4306 61.8256 40.6431 61.8108 40.8359 59.6748C40.8359 59.6006 40.8656 59.4523 41.0139 59.2001C42.8532 56.0999 51.0709 59.5561 55.1649 56.2631Z" fill="#FEA613"/>
</svg>
