<svg width="39" height="39" viewBox="0 0 39 39" fill="none" xmlns="http://www.w3.org/2000/svg">
<path d="M21.7947 0.221093C20.4947 0.149593 19.5457 0.799592 17.3812 2.52209C11.5767 7.15009 8.00173 10.4911 8.00173 10.4911C1.56023 16.5166 0.227726 17.2121 0.351226 18.9736C0.409726 19.8186 0.728227 19.7666 4.89473 24.9926C7.76773 28.5871 7.68973 28.7171 9.30823 30.4331C11.1997 32.4416 12.7792 33.7286 14.6122 35.2236C17.4332 37.5246 18.8437 38.6751 19.7147 38.7661C21.3917 38.9481 22.2627 37.9406 29.1072 31.6486C29.1072 31.6486 30.0757 30.7581 35.8542 24.7196C37.5572 22.9386 38.7402 21.6646 38.6492 19.9811C38.5777 18.7461 37.8172 17.6736 36.7967 16.2306C35.8997 14.9566 34.6257 13.6501 34.5152 13.5331C34.2682 13.2796 34.0797 13.0976 34.0147 13.0391C32.2402 11.3036 29.1852 7.39059 28.2882 6.26609C25.1357 2.30759 23.5562 0.325093 21.7947 0.221093Z" fill="#A0F3DD"/>
</svg>
