<svg width="39" height="33" viewBox="0 0 39 33" fill="none" xmlns="http://www.w3.org/2000/svg">
<path d="M35.8021 31.3655C35.1456 32.022 33.9951 32.685 30.8426 32.685C25.3306 32.6785 23.4911 30.6245 16.1851 29.1425C14.8136 28.863 12.8506 28.4665 10.1726 28.239C5.32357 27.823 3.82857 28.8565 2.22307 27.6865C0.0195707 26.0745 0.143071 22.3435 0.214571 20.1205C0.377071 15.1155 2.54157 14.9075 2.24907 10.5265C2.13207 8.75849 1.66407 7.01649 2.11907 4.16949C2.44407 2.12199 2.92507 1.53699 3.24357 1.24449C4.46557 0.113493 6.44807 0.373493 9.07407 0.919493C12.9676 1.72549 14.9111 2.12849 17.6866 3.25299C28.3141 7.55599 36.3481 3.63649 38.2786 7.69249C38.9416 9.08999 38.6361 10.9165 38.2266 13.2955C37.7066 16.3635 36.8421 16.513 36.6146 18.944C36.3351 21.9405 37.5831 22.376 37.4661 25.9055C37.4076 27.6345 37.3036 29.877 35.8021 31.3655Z" fill="#FFAD87"/>
</svg>
