<svg width="39" height="39" viewBox="0 0 39 39" fill="none" xmlns="http://www.w3.org/2000/svg">
<path d="M38.259 19.4805C38.441 22.971 38.5905 25.701 37.115 28.6195C35.737 31.356 33.6765 32.773 31.5705 34.2225C29.6465 35.5485 25.064 38.6165 18.5705 38.5645C16.536 38.5515 12.454 38.519 8.59949 35.789C5.83049 33.826 4.53049 31.4275 3.47099 29.4775C2.37249 27.456 0.201488 22.724 0.701988 16.5815C0.896988 14.196 1.11799 11.4985 2.92499 8.7295C5.00499 5.538 8.13149 3.9065 10.2505 2.795C11.31 2.2425 12.6295 1.547 14.5015 1.0465C19.8315 -0.389996 24.479 1.0205 26.6045 1.8655C27.9825 2.4115 30.979 3.64 33.5855 6.604C35.0935 8.3135 35.867 9.9255 36.2895 10.829C37.96 14.339 38.155 17.433 38.259 19.4805Z" fill="#4AB8F7"/>
</svg>
