<svg width="34" height="32" viewBox="0 0 34 32" fill="none" xmlns="http://www.w3.org/2000/svg">
<rect width="34" height="32" rx="16" fill="#FFDCCC" fill-opacity="0.5"/>
<g clip-path="url(#clip0_84_1659)">
<path d="M27.6444 17.0431C27.106 16.1349 26.3389 15.3738 25.4265 14.8424C24.4854 14.2946 23.4095 14.0049 22.315 14.0049C21.2205 14.0049 20.1446 14.2946 19.2035 14.8424C18.291 15.3738 17.5242 16.1349 16.9855 17.0431C16.5184 17.8313 16.5114 18.7789 16.9669 19.5784C17.427 20.3862 18.2556 20.8683 19.1833 20.8683H25.4467C26.3745 20.8683 27.203 20.3861 27.6632 19.5784C28.1186 18.7789 28.1116 17.8313 27.6444 17.0431Z" fill="#19CFFC"/>
<path d="M25.4267 14.8416C24.4858 14.2936 23.4097 14.0039 22.3152 14.0039C22.3152 14.0039 22.3152 14.0039 22.315 14.0039V20.8675H25.4468C26.3747 20.8675 27.2032 20.3853 27.6633 19.5776C28.1188 18.7781 28.1117 17.8303 27.6446 17.0423C27.1062 16.1339 26.3391 15.3729 25.4267 14.8416Z" fill="#4AB8F7"/>
<path d="M24.7738 9.41302C24.117 8.75624 23.2439 8.39453 22.315 8.39453C21.3861 8.39453 20.513 8.75624 19.8564 9.41302C19.1996 10.0698 18.8379 10.9429 18.8379 11.8716C18.8379 12.8005 19.1996 13.6736 19.8564 14.3304C20.513 14.9872 21.3861 15.3489 22.315 15.3489C23.2439 15.3489 24.117 14.9872 24.7738 14.3304C25.4306 13.6736 25.7923 12.8005 25.7923 11.8716C25.7923 10.9429 25.4306 10.0698 24.7738 9.41302Z" fill="#FFD2BF"/>
<path d="M24.774 9.41232C24.096 8.73439 23.2056 8.39551 22.315 8.39551V15.3465H22.3152C23.2056 15.3465 24.096 15.0076 24.774 14.3297C26.1296 12.974 26.1296 10.768 24.774 9.41232Z" fill="#FFB89C"/>
<path d="M17.0142 17.0431C16.4758 16.1349 15.7087 15.3738 14.7963 14.8424C13.8554 14.2946 12.7793 14.0049 11.6848 14.0049C10.5902 14.0049 9.51435 14.2946 8.57324 14.8424C7.66082 15.3738 6.89393 16.1349 6.35532 17.0431C5.8882 17.8311 5.88115 18.7789 6.33668 19.5784C6.79675 20.3861 7.62541 20.8683 8.5531 20.8683H14.8166C15.7443 20.8683 16.5728 20.3862 17.033 19.5784C17.4884 18.7791 17.4813 17.8313 17.0142 17.0431Z" fill="#27488F"/>
<path d="M14.7965 14.8416C13.8555 14.2936 12.7795 14.0039 11.685 14.0039C11.685 14.0039 11.685 14.0039 11.6848 14.0039V20.8675H14.8166C15.7445 20.8675 16.573 20.3853 17.033 19.5776C17.4886 18.7781 17.4815 17.8303 17.0144 17.0423C16.476 16.1339 15.7089 15.3729 14.7965 14.8416Z" fill="#12254C"/>
<path d="M14.1436 9.41302C13.4868 8.75624 12.6136 8.39453 11.6848 8.39453C10.7561 8.39453 9.88278 8.75624 9.22616 9.41302C8.56938 10.0698 8.20767 10.9429 8.20767 11.8716C8.20767 12.8005 8.56938 13.6736 9.22616 14.3304C9.88278 14.9872 10.7561 15.3489 11.6848 15.3489C12.6136 15.3489 13.4868 14.9872 14.1436 14.3304C14.8003 13.6736 15.162 12.8005 15.162 11.8716C15.162 10.9429 14.8003 10.0698 14.1436 9.41302Z" fill="#FFD2BF"/>
<path d="M14.1437 9.41232C13.4658 8.73439 12.5754 8.39551 11.6848 8.39551V15.3465H11.685C12.5754 15.3465 13.4658 15.0076 14.1437 14.3297C15.4994 12.974 15.4994 10.768 14.1437 9.41232Z" fill="#FFB89C"/>
<path d="M22.3293 19.8028C21.7908 18.8945 21.0239 18.1334 20.1115 17.6022C19.1704 17.0542 18.0945 16.7646 17 16.7646C15.9055 16.7646 14.8294 17.0542 13.8885 17.6022C12.976 18.1334 12.209 18.8945 11.6705 19.8028C11.2034 20.5909 11.1964 21.5387 11.6519 22.3382C12.112 23.1458 12.9405 23.6281 13.8683 23.6281H20.1317C21.0594 23.6281 21.888 23.1458 22.3481 22.3382C22.8034 21.5387 22.7966 20.5909 22.3293 19.8028Z" fill="#FE6A16"/>
<path d="M20.1115 17.6024C19.1704 17.0544 18.0945 16.7646 17 16.7646H16.9998V23.6282H20.1317C21.0593 23.6282 21.888 23.146 22.3481 22.3383C22.8034 21.5389 22.7966 20.591 22.3293 19.803C21.7908 18.8946 21.0239 18.1336 20.1115 17.6024Z" fill="#FF432E"/>
<path d="M19.4587 12.1725C18.1029 10.8168 15.897 10.8168 14.5412 12.1725C13.1855 13.5282 13.1855 15.7342 14.5412 17.0899C15.2191 17.7679 16.1095 18.1067 17 18.1067C17.8904 18.1067 18.7808 17.7679 19.4587 17.0899C20.8144 15.7342 20.8144 13.5282 19.4587 12.1725Z" fill="#FFD2BF"/>
<path d="M19.4588 12.1726C18.7808 11.4946 17.8902 11.1558 16.9998 11.1558V18.1068H17C17.8904 18.1068 18.7808 17.7679 19.4588 17.09C20.8145 15.7343 20.8145 13.5283 19.4588 12.1726Z" fill="#FFB89C"/>
</g>
<defs>
<clipPath id="clip0_84_1659">
<rect width="22" height="22" fill="white" transform="translate(6 5)"/>
</clipPath>
</defs>
</svg>
