<svg width="19" height="19" viewBox="0 0 19 19" fill="none" xmlns="http://www.w3.org/2000/svg">
<g filter="url(#filter0_d_138_1402)">
<path d="M8 0.421387C6.41775 0.421387 4.87104 0.890588 3.55544 1.76964C2.23985 2.64869 1.21447 3.89811 0.608964 5.35991C0.00346247 6.82172 -0.154959 8.43027 0.153723 9.98211C0.462405 11.534 1.22433 12.9594 2.34315 14.0782C3.46197 15.1971 4.88744 15.959 6.43929 16.2677C7.99114 16.5764 9.59966 16.4179 11.0615 15.8124C12.5233 15.2069 13.7727 14.1815 14.6517 12.866C15.5308 11.5504 16 10.0036 16 8.42138C16 6.29965 15.1571 4.26483 13.6568 2.76454C12.1566 1.26425 10.1217 0.421387 8 0.421387ZM8 11.9881C7.29453 11.9883 6.60485 11.7793 6.01817 11.3875C5.43149 10.9957 4.97417 10.4388 4.70404 9.78707C4.43392 9.13537 4.36313 8.4182 4.50062 7.72626C4.63812 7.03432 4.97772 6.39868 5.47648 5.89976C5.97524 5.40084 6.61075 5.06105 7.30265 4.92334C7.99455 4.78562 8.71174 4.85619 9.36352 5.12611C10.0153 5.39603 10.5724 5.85319 10.9644 6.43975C11.3563 7.0263 11.5656 7.71591 11.5656 8.42138C11.5656 9.36712 11.1899 10.2741 10.5213 10.943C9.85265 11.6118 8.94575 11.9878 8 11.9881Z" fill="#FE5000"/>
<path d="M3.83323 2.18537C5.0666 1.36126 6.51664 0.921387 8 0.921387C9.98912 0.921387 11.8968 1.71157 13.3033 3.11809C14.7098 4.52461 15.5 6.43226 15.5 8.42138C15.5 9.90474 15.0601 11.3548 14.236 12.5882C13.4119 13.8215 12.2406 14.7828 10.8701 15.3505C9.49968 15.9181 7.99169 16.0667 6.53683 15.7773C5.08197 15.4879 3.7456 14.7736 2.6967 13.7247C1.64781 12.6758 0.933505 11.3394 0.644115 9.88457C0.354726 8.42971 0.503247 6.9217 1.0709 5.55125C1.63856 4.18081 2.59986 3.00948 3.83323 2.18537ZM5.7405 11.8033C6.40942 12.25 7.19578 12.4883 8.00015 12.4881C9.07849 12.4877 10.1125 12.0591 10.8749 11.2965C11.6373 10.5339 12.0656 9.49971 12.0656 8.42138C12.0656 7.61701 11.827 6.83072 11.3801 6.16194C10.9332 5.49316 10.298 4.97191 9.55483 4.66415C8.81167 4.35639 7.99394 4.27594 7.20505 4.43295C6.41616 4.58997 5.69155 4.9774 5.12287 5.54626C4.55418 6.11513 4.16698 6.83988 4.01021 7.62881C3.85344 8.41775 3.93416 9.23546 4.24215 9.97852C4.55014 10.7216 5.07158 11.3566 5.7405 11.8033Z" stroke="#052370"/>
</g>
<defs>
<filter id="filter0_d_138_1402" x="0" y="0.421387" width="19" height="18" filterUnits="userSpaceOnUse" color-interpolation-filters="sRGB">
<feFlood flood-opacity="0" result="BackgroundImageFix"/>
<feColorMatrix in="SourceAlpha" type="matrix" values="0 0 0 0 0 0 0 0 0 0 0 0 0 0 0 0 0 0 127 0" result="hardAlpha"/>
<feOffset dx="3" dy="2"/>
<feComposite in2="hardAlpha" operator="out"/>
<feColorMatrix type="matrix" values="0 0 0 0 0.0196078 0 0 0 0 0.137255 0 0 0 0 0.439216 0 0 0 1 0"/>
<feBlend mode="normal" in2="BackgroundImageFix" result="effect1_dropShadow_138_1402"/>
<feBlend mode="normal" in="SourceGraphic" in2="effect1_dropShadow_138_1402" result="shape"/>
</filter>
</defs>
</svg>
