<svg width="138" height="138" viewBox="0 0 138 138" fill="none" xmlns="http://www.w3.org/2000/svg">
<circle cx="69" cy="69" r="69" fill="#FBEAE9"/>
<path fill-rule="evenodd" clip-rule="evenodd" d="M27.8516 88.518L58.0926 32.1052C62.903 23.1316 76.0969 23.1316 80.9074 32.1052L111.148 88.5179C115.618 96.8552 109.403 106.833 99.741 106.833H39.259C29.597 106.833 23.3823 96.8552 27.8516 88.518ZM69.5 39.75C72.1464 39.75 74.2917 41.8953 74.2917 44.5417V78.0833C74.2917 80.7297 72.1464 82.875 69.5 82.875C66.8536 82.875 64.7083 80.7297 64.7083 78.0833V44.5417C64.7083 41.8953 66.8536 39.75 69.5 39.75ZM63.5104 91.2604C63.5104 94.5684 66.192 97.25 69.5 97.25C72.8079 97.25 75.4896 94.5684 75.4896 91.2604C75.4896 87.9525 72.8079 85.2708 69.5 85.2708C66.192 85.2708 63.5104 87.9525 63.5104 91.2604Z" fill="#D42620"/>
</svg>
