<svg width="1920" height="983" viewBox="0 0 1920 983" fill="none" xmlns="http://www.w3.org/2000/svg">
<g clip-path="url(#clip0_69_356)">
<mask id="mask0_69_356" style="mask-type:luminance" maskUnits="userSpaceOnUse" x="-11" y="67" width="1931" height="849">
<path d="M1920 67.6323H-11V915.135H1920V67.6323Z" fill="white"/>
</mask>
<g mask="url(#mask0_69_356)">
<path d="M-11 67.6323H1920" stroke="#DEE2E7" stroke-width="0.79" stroke-dasharray="790 790"/>
<path d="M-11 101.716H1920" stroke="#DEE2E7" stroke-width="0.79" stroke-dasharray="790 790"/>
<path d="M-11 136.261H1920" stroke="#DEE2E7" stroke-width="0.79" stroke-dasharray="790 790"/>
<path d="M-11 176.794H1920" stroke="#DEE2E7" stroke-width="0.79" stroke-dasharray="790 790"/>
<path d="M-11 231.882H1920" stroke="#DEE2E7" stroke-width="0.79" stroke-dasharray="790 790"/>
<path d="M-11 269.559H1920" stroke="#DEE2E7" stroke-width="0.79" stroke-dasharray="790 790"/>
<path d="M-11 307.236H1920" stroke="#DEE2E7" stroke-width="0.79" stroke-dasharray="790 790"/>
<path d="M-11 344.729H1920" stroke="#DEE2E7" stroke-width="0.79" stroke-dasharray="790 790"/>
<path d="M-11 382.406H1920" stroke="#DEE2E7" stroke-width="0.79" stroke-dasharray="790 790"/>
<path d="M-11 420.083H1920" stroke="#DEE2E7" stroke-width="0.79" stroke-dasharray="790 790"/>
<path d="M-11 457.76H1920" stroke="#DEE2E7" stroke-width="0.79" stroke-dasharray="790 790"/>
<path d="M-11 495.344H1920" stroke="#DEE2E7" stroke-width="0.79" stroke-dasharray="790 790"/>
<path d="M-11 533.021H1920" stroke="#DEE2E7" stroke-width="0.79" stroke-dasharray="790 790"/>
<path d="M-11 570.514H1920" stroke="#DEE2E7" stroke-width="0.79" stroke-dasharray="790 790"/>
<path d="M-11 608.191H1920" stroke="#DEE2E7" stroke-width="0.79" stroke-dasharray="790 790"/>
<path d="M-11 645.868H1920" stroke="#DEE2E7" stroke-width="0.79" stroke-dasharray="790 790"/>
<path d="M-11 683.453H1920" stroke="#DEE2E7" stroke-width="0.79" stroke-dasharray="790 790"/>
<path d="M-11 721.038H1920" stroke="#DEE2E7" stroke-width="0.79" stroke-dasharray="790 790"/>
<path d="M-11 758.991H1920" stroke="#DEE2E7" stroke-width="0.79" stroke-dasharray="790 790"/>
<path d="M-11 796.945H1920" stroke="#DEE2E7" stroke-width="0.79" stroke-dasharray="790 790"/>
<path d="M-11 834.898H1920" stroke="#DEE2E7" stroke-width="0.79" stroke-dasharray="790 790"/>
<path d="M88.5672 915.135V67.6323" stroke="#DEE2E7" stroke-width="0.79" stroke-dasharray="790 790"/>
<path d="M229.772 915.135V67.6323" stroke="#DEE2E7" stroke-width="0.79" stroke-dasharray="790 790"/>
<path d="M1099.33 67.6323L371.579 72.2383L-11 67.6323" stroke="#DEE2E7" stroke-width="0.79" stroke-dasharray="790 790"/>
<path d="M513.749 915.135V67.6323" stroke="#DEE2E7" stroke-width="0.79" stroke-dasharray="790 790"/>
<path d="M655.798 915.135V67.6323" stroke="#DEE2E7" stroke-width="0.79" stroke-dasharray="790 790"/>
<path d="M797.606 915.135V67.6323" stroke="#DEE2E7" stroke-width="0.79" stroke-dasharray="790 790"/>
<path d="M939.414 915.135V67.6323" stroke="#DEE2E7" stroke-width="0.79" stroke-dasharray="790 790"/>
<path d="M1081.22 915.135V67.6323" stroke="#DEE2E7" stroke-width="0.79" stroke-dasharray="790 790"/>
<path d="M1223.03 915.135V67.6323" stroke="#DEE2E7" stroke-width="0.79" stroke-dasharray="790 790"/>
<path d="M1365.2 915.135V67.6323" stroke="#DEE2E7" stroke-width="0.79" stroke-dasharray="790 790"/>
<path d="M1522.33 915.135V67.6323" stroke="#DEE2E7" stroke-width="0.79" stroke-dasharray="790 790"/>
<path d="M1679.23 915.135V67.6323" stroke="#DEE2E7" stroke-width="0.79" stroke-dasharray="790 790"/>
<path d="M1820.43 915.135V67.6323" stroke="#DEE2E7" stroke-width="0.79" stroke-dasharray="790 790"/>
<path d="M954.499 274.103C1357.76 274.103 1684.66 165.839 1684.66 32.2881C1684.66 -101.262 1357.76 -209.526 954.499 -209.526C551.243 -209.526 224.34 -101.262 224.34 32.2881C224.34 165.839 551.243 274.103 954.499 274.103Z" fill="url(#paint0_radial_69_356)"/>
</g>
<path d="M-11 171.844H1920" stroke="#C6CDD8" stroke-width="0.79" stroke-dasharray="790 790"/>
<path d="M-11 794.574H1920" stroke="#C6CDD8" stroke-width="0.79" stroke-dasharray="790 790"/>
<path d="M229.771 950.717V103.215" stroke="#C6CDD8" stroke-width="0.79" stroke-dasharray="790 790"/>
<path d="M1679.23 950.717V103.215" stroke="#C6CDD8" stroke-width="0.79" stroke-dasharray="790 790"/>
</g>
<defs>
<radialGradient id="paint0_radial_69_356" cx="0" cy="0" r="1" gradientUnits="userSpaceOnUse" gradientTransform="translate(954.499 32.2881) scale(888.25 294.171)">
<stop offset="0.470178" stop-color="#FBFBFB"/>
<stop offset="1" stop-color="#FBFBFB" stop-opacity="0"/>
</radialGradient>
<clipPath id="clip0_69_356">
<rect width="1931" height="983" fill="white" transform="translate(-11)"/>
</clipPath>
</defs>
</svg>
