<svg width="37" height="34" viewBox="0 0 37 34" fill="none" xmlns="http://www.w3.org/2000/svg">
<g filter="url(#filter0_d_138_1343)">
<path d="M32 16C32 17.3522 30.0554 18.4308 29.722 19.6768C29.377 20.9672 30.5119 22.8715 29.8582 24.0012C29.1953 25.1473 26.9713 25.1124 26.0425 26.0425C25.1138 26.9726 25.1473 29.1953 24.0012 29.8582C22.8715 30.5119 20.9672 29.3772 19.6768 29.722C18.43 30.0554 17.3514 32 16 32C14.6486 32 13.5692 30.0554 12.3232 29.722C11.0328 29.3772 9.1285 30.5119 7.99877 29.8582C6.85271 29.1953 6.88758 26.9713 5.95749 26.0425C5.0274 25.1138 2.80471 25.1473 2.1418 24.0012C1.48815 22.8715 2.62305 20.9672 2.27798 19.6768C1.94489 18.43 0 17.3514 0 16C0 14.6486 1.94489 13.5692 2.27798 12.3232C2.62305 11.0328 1.48815 9.1285 2.1418 7.99877C2.80471 6.85271 5.02876 6.88758 5.95749 5.95749C6.88621 5.0274 6.85271 2.80471 7.99877 2.1418C9.1285 1.48815 11.0328 2.62305 12.3232 2.27798C13.5701 1.94489 14.6489 0 16 0C17.3512 0 18.4308 1.94489 19.6768 2.27798C20.9672 2.62305 22.8715 1.48815 24.0012 2.1418C25.1473 2.80498 25.1124 5.02875 26.0425 5.95775C26.9726 6.88675 29.1953 6.85271 29.8582 7.99877C30.5119 9.1285 29.377 11.0328 29.722 12.3232C30.0554 13.5692 32 14.648 32 16Z" fill="#FE5000"/>
</g>
<path d="M20.6698 14.676C20.6698 14.6442 20.6725 14.6124 20.6725 14.5803C20.6725 13.2928 19.5768 12.1768 18.2257 12.1768C17.2374 12.1768 16.3868 12.8072 16.0005 13.6104C15.6142 12.8072 14.7636 12.1768 13.7756 12.1768C12.4242 12.1768 11.3274 13.2928 11.3274 14.5803C11.3274 14.6124 11.3274 14.6442 11.3301 14.676C11.3301 14.676 11.1919 16.2054 12.9079 17.8752C13.351 18.3152 13.8238 18.7429 14.4124 19.242C14.8545 19.6168 15.4171 19.8228 15.9989 19.8228C16.5806 19.8228 17.1432 19.6168 17.5853 19.242C18.174 18.7429 18.6462 18.3152 19.0899 17.8752C20.8077 16.2054 20.6698 14.676 20.6698 14.676Z" fill="white"/>
<defs>
<filter id="filter0_d_138_1343" x="0" y="0" width="37" height="34" filterUnits="userSpaceOnUse" color-interpolation-filters="sRGB">
<feFlood flood-opacity="0" result="BackgroundImageFix"/>
<feColorMatrix in="SourceAlpha" type="matrix" values="0 0 0 0 0 0 0 0 0 0 0 0 0 0 0 0 0 0 127 0" result="hardAlpha"/>
<feOffset dx="5" dy="2"/>
<feComposite in2="hardAlpha" operator="out"/>
<feColorMatrix type="matrix" values="0 0 0 0 0.0196078 0 0 0 0 0.137255 0 0 0 0 0.439216 0 0 0 1 0"/>
<feBlend mode="normal" in2="BackgroundImageFix" result="effect1_dropShadow_138_1343"/>
<feBlend mode="normal" in="SourceGraphic" in2="effect1_dropShadow_138_1343" result="shape"/>
</filter>
</defs>
</svg>
