<svg width="38" height="38" viewBox="0 0 38 38" fill="none" xmlns="http://www.w3.org/2000/svg">
<rect width="38" height="38" rx="19" fill="#FFEBA4"/>
<g clip-path="url(#clip0_180_37019)">
<g clip-path="url(#clip1_180_37019)">
<path fill-rule="evenodd" clip-rule="evenodd" d="M18.3751 11.8249C18.3974 11.8023 18.4208 11.7808 18.4454 11.7606C18.5046 11.712 18.5686 11.6724 18.6357 11.6417C18.7459 11.5912 18.8683 11.5629 18.9973 11.5625H18.9999C19.0035 11.5625 19.0071 11.5625 19.0107 11.5626C19.1154 11.5638 19.2157 11.5835 19.3085 11.6185C19.4216 11.661 19.5277 11.7278 19.6187 11.8188L26.1812 18.3813C26.5229 18.723 26.5229 19.277 26.1812 19.6187C25.8395 19.9604 25.2855 19.9604 24.9438 19.6187L19.8749 14.5499V25.5625C19.8749 26.0458 19.4832 26.4375 18.9999 26.4375C18.5167 26.4375 18.1249 26.0458 18.1249 25.5625V14.55L13.0562 19.6187C12.7145 19.9604 12.1605 19.9604 11.8188 19.6187C11.4771 19.277 11.4771 18.723 11.8188 18.3813L18.3751 11.8249Z" fill="#212121"/>
</g>
</g>
<defs>
<clipPath id="clip0_180_37019">
<rect width="30" height="30" fill="white" transform="translate(4 4)"/>
</clipPath>
<clipPath id="clip1_180_37019">
<rect width="30" height="30" fill="white" transform="translate(4 4)"/>
</clipPath>
</defs>
</svg>
