<svg width="38" height="38" viewBox="0 0 38 38" fill="none" xmlns="http://www.w3.org/2000/svg">
<rect y="0.47998" width="38" height="37.03" rx="18.515" fill="#FFEBA4"/>
<g clip-path="url(#clip0_180_37033)">
<g clip-path="url(#clip1_180_37033)">
<path fill-rule="evenodd" clip-rule="evenodd" d="M19.4589 9.13008C19.2672 9.0582 19.0559 9.0582 18.8643 9.13008L11.6068 11.8516C11.2763 11.9756 11.0574 12.2915 11.0574 12.6444V18.9948C11.0574 22.0943 13.1103 24.5772 14.9753 26.2091C15.9255 27.0405 16.8718 27.6907 17.5789 28.1326C17.9332 28.3541 18.2298 28.5246 18.4396 28.6408C18.5447 28.699 18.6281 28.7436 18.6865 28.7742C18.7157 28.7896 18.7386 28.8014 18.7548 28.8097L18.774 28.8195L18.7798 28.8224L18.7817 28.8233C18.782 28.8234 18.7829 28.8239 19.1616 28.0666L18.7829 28.8239C19.0213 28.9431 19.3019 28.9431 19.5402 28.8239L19.1616 28.0666C19.5402 28.8239 19.54 28.824 19.5402 28.8239L19.5415 28.8233L19.5433 28.8224L19.5491 28.8195L19.5683 28.8097C19.5846 28.8014 19.6075 28.7896 19.6367 28.7742C19.6951 28.7436 19.7785 28.699 19.8835 28.6408C20.0934 28.5246 20.3899 28.3541 20.7443 28.1326C21.4514 27.6907 22.3977 27.0405 23.3479 26.2091C25.2129 24.5772 27.2658 22.0943 27.2658 18.9948V12.6444C27.2658 12.2915 27.0468 11.9756 26.7164 11.8516L19.4589 9.13008ZM19.8468 26.6966C19.5741 26.867 19.3402 27.0036 19.1616 27.1044C18.983 27.0036 18.7491 26.867 18.4764 26.6966C17.8226 26.288 16.9545 25.6907 16.0904 24.9347C14.3266 23.3913 12.7508 21.3383 12.7508 18.9948V13.2312L19.1616 10.8272L25.5724 13.2312V18.9948C25.5724 21.3383 23.9965 23.3913 22.2328 24.9347C21.3686 25.6907 20.5006 26.288 19.8468 26.6966ZM22.4818 17.7791C22.8125 17.4484 22.8125 16.9123 22.4818 16.5817C22.1512 16.251 21.6151 16.251 21.2845 16.5817L18.2544 19.6117L17.0387 18.3961C16.7081 18.0654 16.172 18.0654 15.8413 18.3961C15.5107 18.7267 15.5107 19.2628 15.8413 19.5935L17.6557 21.4078C17.9864 21.7385 18.5224 21.7385 18.8531 21.4078L22.4818 17.7791Z" fill="#212121"/>
</g>
</g>
<defs>
<clipPath id="clip0_180_37033">
<rect width="30" height="29.03" fill="white" transform="translate(4 4.47998)"/>
</clipPath>
<clipPath id="clip1_180_37033">
<rect width="30" height="29.03" fill="white" transform="translate(4 4.47998)"/>
</clipPath>
</defs>
</svg>
