<svg width="38" height="38" viewBox="0 0 38 38" fill="none" xmlns="http://www.w3.org/2000/svg">
<rect y="0.47998" width="38" height="37.03" rx="18.515" fill="#FFEBA4"/>
<g clip-path="url(#clip0_180_37040)">
<g clip-path="url(#clip1_180_37040)">
<path fill-rule="evenodd" clip-rule="evenodd" d="M15.144 11.6439C16.2549 11.0846 17.5099 10.7696 18.8384 10.7696C21.7305 10.7696 24.274 12.2623 25.7405 14.5193H24.2815C23.5758 14.5193 22.8989 14.7996 22.3999 15.2988C21.9007 15.7978 21.6204 16.4747 21.6204 17.1804C21.6204 17.437 21.5185 17.6832 21.337 17.8646C21.1555 18.0461 20.9094 18.148 20.6527 18.148C20.3961 18.148 20.15 18.0461 19.9685 17.8646C19.7871 17.6832 19.6851 17.437 19.6851 17.1804C19.6851 16.4747 19.4047 15.7978 18.9057 15.2988C18.4066 14.7996 17.7298 14.5193 17.024 14.5193C17.008 14.5193 16.9921 14.5198 16.9761 14.5207C16.5704 14.5437 16.1681 14.4342 15.8299 14.2088C15.5284 14.0077 15.2924 13.7241 15.1491 13.3932V11.7373C15.1491 11.7057 15.1474 11.6746 15.144 11.6439ZM13.4557 12.7752C12.1365 13.918 11.1845 15.4734 10.8006 17.2409H12.4881C13.1938 17.2409 13.8707 17.5212 14.3698 18.0203C14.8688 18.5193 15.1491 19.1962 15.1491 19.9019V20.8091C15.1491 21.0658 15.2511 21.3119 15.4326 21.4934C15.614 21.6748 15.8602 21.7768 16.1168 21.7768C16.8226 21.7768 17.4994 22.0571 17.9985 22.5563C18.4976 23.0553 18.7779 23.7322 18.7779 24.4379V27.2197C18.798 27.2198 18.8182 27.2199 18.8384 27.2199C19.4833 27.2199 20.111 27.1457 20.7132 27.0053V23.5307C20.7132 22.825 20.9936 22.1481 21.4927 21.6491C21.9917 21.1499 22.6686 20.8696 23.3743 20.8696H26.8489C26.9893 20.2674 27.0635 19.6397 27.0635 18.9948C27.0635 18.0183 26.8934 17.0817 26.5812 16.2127H24.2815C24.0249 16.2127 23.7787 16.3147 23.5973 16.4961C23.4158 16.6776 23.3138 16.9238 23.3138 17.1804C23.3138 17.8861 23.0335 18.563 22.5345 19.062C22.0354 19.5611 21.3586 19.8415 20.6527 19.8415C19.947 19.8415 19.2701 19.5611 18.7711 19.062C18.272 18.563 17.9917 17.8861 17.9917 17.1804C17.9917 16.9238 17.8898 16.6776 17.7082 16.4961C17.5312 16.3191 17.2925 16.2177 17.0427 16.2129C16.2803 16.2499 15.5261 16.0414 14.8906 15.6178C14.247 15.1887 13.7603 14.5622 13.5037 13.8325C13.4719 13.7423 13.4557 13.6473 13.4557 13.5516V12.7752ZM26.2514 22.563H23.3743C23.1177 22.563 22.8715 22.665 22.6901 22.8465C22.5086 23.0279 22.4066 23.2741 22.4066 23.5307V26.4078C24.0828 25.5994 25.443 24.2392 26.2514 22.563ZM18.1346 28.8888C18.367 28.905 18.6018 28.9133 18.8384 28.9133C24.3162 28.9133 28.757 24.4726 28.757 18.9948C28.757 13.5169 24.3162 9.07617 18.8384 9.07617C13.3605 9.07617 8.9198 13.5169 8.9198 18.9948C8.9198 24.0433 12.6916 28.2108 17.571 28.8331C17.6803 28.8846 17.8024 28.9133 17.9312 28.9133C18.0013 28.9133 18.0694 28.9048 18.1346 28.8888ZM17.0845 27.0325V24.4379C17.0845 24.1813 16.9826 23.9351 16.801 23.7536C16.6196 23.5722 16.3734 23.4702 16.1168 23.4702C15.4111 23.4702 14.7342 23.1899 14.2352 22.6908C13.7361 22.1917 13.4557 21.5148 13.4557 20.8091V19.9019C13.4557 19.6453 13.3538 19.3991 13.1723 19.2177C12.9908 19.0363 12.7447 18.9343 12.4881 18.9343H10.6737C10.6534 18.9343 10.6333 18.9336 10.6134 18.9321C10.6133 18.953 10.6132 18.9739 10.6132 18.9948C10.6132 22.9355 13.3845 26.2289 17.0845 27.0325Z" fill="#212121"/>
</g>
</g>
<defs>
<clipPath id="clip0_180_37040">
<rect width="30" height="29.03" fill="white" transform="translate(4 4.47998)"/>
</clipPath>
<clipPath id="clip1_180_37040">
<rect width="30" height="29.03" fill="white" transform="translate(4 4.47998)"/>
</clipPath>
</defs>
</svg>
