<svg width="38" height="38" viewBox="0 0 38 38" fill="none" xmlns="http://www.w3.org/2000/svg">
<rect width="38" height="38" rx="19" fill="#FFEBA4"/>
<g clip-path="url(#clip0_180_37047)">
<g clip-path="url(#clip1_180_37047)">
<path fill-rule="evenodd" clip-rule="evenodd" d="M10.5 19C10.5 14.3056 14.3056 10.5 19 10.5C23.6944 10.5 27.5 14.3056 27.5 19C27.5 23.6944 23.6944 27.5 19 27.5C14.3056 27.5 10.5 23.6944 10.5 19ZM19 8.75C13.3391 8.75 8.75 13.3391 8.75 19C8.75 24.6609 13.3391 29.25 19 29.25C24.6609 29.25 29.25 24.6609 29.25 19C29.25 13.3391 24.6609 8.75 19 8.75ZM19.875 13.375C19.875 12.8917 19.4832 12.5 19 12.5C18.5168 12.5 18.125 12.8917 18.125 13.375V17.5842L15.6413 16.3424C15.2091 16.1263 14.6835 16.3015 14.4674 16.7337C14.2513 17.1659 14.4265 17.6915 14.8587 17.9076L18.6087 19.7826C18.8799 19.9182 19.202 19.9038 19.46 19.7443C19.718 19.5849 19.875 19.3033 19.875 19V13.375Z" fill="#212121"/>
</g>
</g>
<defs>
<clipPath id="clip0_180_37047">
<rect width="30" height="30" fill="white" transform="translate(4 4)"/>
</clipPath>
<clipPath id="clip1_180_37047">
<rect width="30" height="30" fill="white" transform="translate(4 4)"/>
</clipPath>
</defs>
</svg>
