<svg width="21" height="20" viewBox="0 0 21 20" fill="none" xmlns="http://www.w3.org/2000/svg">
<g filter="url(#filter0_d_138_1395)">
<path d="M9.5 18.3496C14.4706 18.3496 18.5 14.3202 18.5 9.34961C18.5 4.37905 14.4706 0.349609 9.5 0.349609C4.52944 0.349609 0.5 4.37905 0.5 9.34961C0.5 14.3202 4.52944 18.3496 9.5 18.3496Z" fill="#FE5000"/>
<path d="M18 9.34961C18 14.044 14.1944 17.8496 9.5 17.8496C4.80558 17.8496 1 14.044 1 9.34961C1 4.65519 4.80558 0.849609 9.5 0.849609C14.1944 0.849609 18 4.65519 18 9.34961Z" stroke="#052370"/>
</g>
<path d="M5.07163 10.1583L5.04548 10.176L5.07163 10.1583ZM5.07163 10.1583L5.07549 10.1557L5.07163 10.1583ZM5.09436 10.1429L5.09531 10.1354L5.09436 10.1429ZM5.09436 10.1429L5.09845 10.1401L5.09436 10.1429ZM5.0673 10.1805L5.0688 10.1781L5.0673 10.1805Z" fill="white" stroke="white" stroke-width="10"/>
<path d="M7.16295 6.09911C7.16622 6.09571 7.16953 6.09234 7.17287 6.08899C7.302 5.95986 7.47443 5.8877 7.65387 5.8877C7.8333 5.8877 8.00573 5.95986 8.13486 6.08899C8.1382 6.09234 8.14151 6.09571 8.14478 6.09911C8.25699 6.21592 8.32678 6.36895 8.34297 6.53226L7.68903 6.55486M7.16295 6.09911L7.68903 6.55486M7.16295 6.09911L7.61871 6.55486L7.63946 6.55558L7.65387 6.55608M7.68903 6.55486V6.55486Z" fill="white" stroke="white" stroke-width="10"/>
<path d="M11.3403 6.59145L11.344 6.5914L11.3461 6.59137L11.3482 6.59134L11.3514 6.5913L11.3581 6.5912L11.3667 6.59109L11.3769 6.59094L11.379 6.59092L12.0376 6.59914C12.0327 6.6838 12.0133 6.76615 11.981 6.84264C11.947 6.92321 11.8987 6.99728 11.8378 7.06069C11.8343 7.06435 11.8307 7.06797 11.8271 7.07155C11.7632 7.13526 11.6888 7.18506 11.6081 7.21913C11.5329 7.25086 11.4524 7.26894 11.3701 7.27188C11.3621 7.27217 11.3541 7.27231 11.3461 7.27231C11.3378 7.27231 11.3295 7.27216 11.3213 7.27185C11.2392 7.26881 11.1589 7.25071 11.0839 7.21904C11.0033 7.18498 10.9289 7.1352 10.8651 7.07155C10.8616 7.06807 10.8582 7.06456 10.8548 7.06102C10.794 6.99781 10.7457 6.92398 10.7116 6.84367C10.6793 6.76741 10.6598 6.68529 10.6547 6.60086L11.3146 6.5918L11.325 6.59166L11.3333 6.59154L11.3403 6.59145ZM11.3403 6.59145L11.3378 6.59759L11.3403 6.59145ZM11.3541 6.55759L11.3574 6.54974L11.3541 6.55759ZM11.3541 6.55759L11.3575 6.55747L11.3593 6.55741L11.3785 6.55674L11.4003 6.55599L12.0362 6.53395C12.0301 6.4578 12.0121 6.38306 11.9827 6.31272C11.9487 6.23128 11.9001 6.15726 11.8395 6.09451C11.8368 6.09173 11.8341 6.08897 11.8314 6.08623C11.767 6.02175 11.691 5.97104 11.6077 5.937C11.5244 5.903 11.4356 5.88627 11.3461 5.88779C11.346 5.88779 11.3458 5.8878 11.3457 5.8878C11.2561 5.88622 11.1671 5.90294 11.0838 5.937C11.0005 5.97106 10.9246 6.02178 10.8603 6.08627C10.8576 6.08891 10.855 6.09157 10.8524 6.09425C10.7918 6.15707 10.7432 6.23122 10.7092 6.31278C10.6799 6.38312 10.662 6.45783 10.656 6.53395L11.2931 6.55603L11.3137 6.55674L11.3329 6.55741L11.3339 6.55744L11.3376 6.55757L11.3461 6.55787L11.3461 6.55787L11.3541 6.55759ZM11.3458 6.57799L11.3459 6.57784L11.3458 6.57799Z" fill="white" stroke="white" stroke-width="10"/>
<defs>
<filter id="filter0_d_138_1395" x="0.5" y="0.349609" width="20" height="19" filterUnits="userSpaceOnUse" color-interpolation-filters="sRGB">
<feFlood flood-opacity="0" result="BackgroundImageFix"/>
<feColorMatrix in="SourceAlpha" type="matrix" values="0 0 0 0 0 0 0 0 0 0 0 0 0 0 0 0 0 0 127 0" result="hardAlpha"/>
<feOffset dx="2" dy="1"/>
<feComposite in2="hardAlpha" operator="out"/>
<feColorMatrix type="matrix" values="0 0 0 0 0.0196078 0 0 0 0 0.137255 0 0 0 0 0.439216 0 0 0 1 0"/>
<feBlend mode="normal" in2="BackgroundImageFix" result="effect1_dropShadow_138_1395"/>
<feBlend mode="normal" in="SourceGraphic" in2="effect1_dropShadow_138_1395" result="shape"/>
</filter>
</defs>
</svg>
