<svg width="117" height="118" viewBox="0 0 117 118" fill="none" xmlns="http://www.w3.org/2000/svg">
<g filter="url(#filter0_d_138_1403)">
<path d="M56.5 113C87.7041 113 113 87.7041 113 56.5C113 25.2959 87.7041 0 56.5 0C25.2959 0 0 25.2959 0 56.5C0 87.7041 25.2959 113 56.5 113Z" fill="#FE5000"/>
<path d="M110 56.5C110 86.0472 86.0472 110 56.5 110C26.9528 110 3 86.0472 3 56.5C3 26.9528 26.9528 3 56.5 3C86.0472 3 110 26.9528 110 56.5Z" stroke="#052370" stroke-width="6"/>
</g>
<path d="M91.4899 54.5039L91.5951 54.4347M91.4899 54.5039L91.5951 54.4347M91.4899 54.5039L91.5951 54.4347M91.4899 54.5039L91.5739 54.3247M91.5951 54.4347L91.5739 54.3247M91.5951 54.4347L91.5739 54.3247M91.5951 54.4347L91.5739 54.3247M91.5951 54.4347L91.6948 54.3691L91.5951 54.4347ZM91.5409 54.153L91.5304 54.0982L91.5409 54.153Z" fill="white" stroke="white" stroke-width="10"/>
<path d="M40.5196 32.5745C40.2551 32.31 40.0634 31.9328 40.0105 31.5C40.0634 31.0672 40.2551 30.69 40.5196 30.4255C40.8131 30.132 41.1678 30 41.5001 30C41.8324 30 42.1871 30.132 42.4806 30.4255C42.7449 30.6898 42.9366 31.0669 42.9895 31.5C42.9366 31.9331 42.7449 32.3102 42.4806 32.5745C42.1871 32.868 41.8324 33 41.5001 33C41.1678 33 40.8131 32.868 40.5196 32.5745Z" fill="white" stroke="white" stroke-width="10"/>
<path d="M69.9138 30.0003L69.9956 30.0016L70.0774 30.0003C70.353 29.9958 70.6234 30.0438 70.8712 30.1378C71.1183 30.2316 71.3307 30.3663 71.501 30.5248L74.7642 27.0172L71.501 30.5248C71.6713 30.6832 71.7954 30.861 71.8767 31.0417C71.9388 31.1798 71.9769 31.3214 71.9925 31.4627C71.9483 31.804 71.7807 32.1553 71.4661 32.4466C71.1045 32.7815 70.5817 33 70 33C69.4183 33 68.8955 32.7815 68.5339 32.4466C68.2184 32.1544 68.0506 31.8019 68.0071 31.4596C68.0223 31.3184 68.0601 31.1765 68.1223 31.0379C68.2032 30.8575 68.3266 30.6805 68.4956 30.523C68.6652 30.3651 68.8767 30.2307 69.1228 30.1373C69.369 30.0438 69.6385 29.9958 69.9138 30.0003Z" fill="white" stroke="white" stroke-width="10"/>
<defs>
<filter id="filter0_d_138_1403" x="0" y="0" width="117" height="118" filterUnits="userSpaceOnUse" color-interpolation-filters="sRGB">
<feFlood flood-opacity="0" result="BackgroundImageFix"/>
<feColorMatrix in="SourceAlpha" type="matrix" values="0 0 0 0 0 0 0 0 0 0 0 0 0 0 0 0 0 0 127 0" result="hardAlpha"/>
<feOffset dx="4" dy="5"/>
<feComposite in2="hardAlpha" operator="out"/>
<feColorMatrix type="matrix" values="0 0 0 0 0.0196078 0 0 0 0 0.137255 0 0 0 0 0.439216 0 0 0 1 0"/>
<feBlend mode="normal" in2="BackgroundImageFix" result="effect1_dropShadow_138_1403"/>
<feBlend mode="normal" in="SourceGraphic" in2="effect1_dropShadow_138_1403" result="shape"/>
</filter>
</defs>
</svg>
