<svg width="138" height="138" viewBox="0 0 138 138" fill="none" xmlns="http://www.w3.org/2000/svg">
<circle cx="69" cy="69" r="69" fill="#E7F6EC"/>
<path fill-rule="evenodd" clip-rule="evenodd" d="M69.5 111.625C93.3173 111.625 112.625 92.3173 112.625 68.5C112.625 44.6827 93.3173 25.375 69.5 25.375C45.6827 25.375 26.375 44.6827 26.375 68.5C26.375 92.3173 45.6827 111.625 69.5 111.625ZM87.1113 62.4503C89.0629 60.6629 89.196 57.6319 87.4086 55.6804C85.6213 53.7288 82.5903 53.5957 80.6387 55.383L62.9475 71.5857L58.3613 67.3854C56.4097 65.598 53.3787 65.7311 51.5914 67.6827C49.804 69.6342 49.9371 72.6652 51.8887 74.4526L59.7112 81.6169C61.5427 83.2943 64.3523 83.2943 66.1838 81.6169L87.1113 62.4503Z" fill="#0F973D"/>
</svg>
