<svg width="109" height="109" viewBox="0 0 109 109" fill="none" xmlns="http://www.w3.org/2000/svg">
<path d="M58.7852 10.8652L63.4052 2.55523C65.9052 -1.94477 72.7652 -0.104768 72.6752 5.03523L72.5152 14.5452C72.4552 18.4252 76.6752 20.8652 80.0052 18.8652L88.1552 13.9752C92.5752 11.3252 97.5852 16.3452 94.9452 20.7652L90.0552 28.9152C88.0552 32.2452 90.4952 36.4652 94.3752 36.4052L103.885 36.2452C109.035 36.1552 110.865 43.0152 106.365 45.5152L98.0552 50.1352C94.6652 52.0152 94.6652 56.8952 98.0552 58.7852L106.365 63.4052C110.865 65.9052 109.025 72.7652 103.885 72.6752L94.3752 72.5152C90.4952 72.4552 88.0552 76.6752 90.0552 80.0052L94.9452 88.1552C97.5952 92.5752 92.5752 97.5852 88.1552 94.9452L80.0052 90.0552C76.6752 88.0552 72.4552 90.4952 72.5152 94.3752L72.6752 103.885C72.7652 109.035 65.9052 110.865 63.4052 106.365L58.7852 98.0552C56.9052 94.6652 52.0252 94.6652 50.1352 98.0552L45.5152 106.365C43.0152 110.865 36.1552 109.025 36.2452 103.885L36.4052 94.3752C36.4652 90.4952 32.2452 88.0552 28.9152 90.0552L20.7652 94.9452C16.3452 97.5952 11.3352 92.5752 13.9752 88.1552L18.8652 80.0052C20.8652 76.6752 18.4252 72.4552 14.5452 72.5152L5.03523 72.6752C-0.114769 72.7652 -1.94477 65.9052 2.55523 63.4052L10.8652 58.7852C14.2552 56.9052 14.2552 52.0252 10.8652 50.1352L2.55523 45.5152C-1.94477 43.0152 -0.104768 36.1552 5.03523 36.2452L14.5452 36.4052C18.4252 36.4652 20.8652 32.2452 18.8652 28.9152L13.9752 20.7652C11.3252 16.3452 16.3452 11.3352 20.7652 13.9752L28.9152 18.8652C32.2452 20.8652 36.4652 18.4252 36.4052 14.5452L36.2452 5.03523C36.1552 -0.114769 43.0152 -1.94477 45.5152 2.55523L50.1352 10.8652C52.0152 14.2552 56.8952 14.2552 58.7852 10.8652Z" fill="#F4BB24"/>
<path d="M94.4952 60.9252C93.7652 59.7652 92.2552 59.5152 91.1052 60.1752C85.9752 63.2952 78.8052 59.6552 78.2552 53.6852C78.1152 52.3152 77.1152 51.3352 75.7052 51.3252C70.0152 53.1352 75.9152 61.6652 79.0352 63.7552C71.9552 79.7952 47.5952 83.1352 36.5152 68.4752C45.1952 59.6852 37.0552 51.1252 35.5952 59.7252C35.4652 60.5852 35.2552 61.5452 34.8952 62.3152C34.3552 63.5752 33.4352 64.7952 32.4352 65.6252C31.4152 66.4452 30.2052 67.0052 28.9452 67.2952C27.0652 67.7152 25.1452 67.4952 23.6252 66.8452C22.3952 66.3052 20.9552 66.6052 20.2952 67.8552C18.9752 73.6552 29.2252 72.8152 32.5852 71.2252C45.5352 88.8152 74.0152 85.8552 83.4952 65.8052C86.8952 66.6452 96.3052 66.2352 94.4952 60.9252Z" fill="#221F20" stroke="#F4BB24" stroke-miterlimit="10"/>
<path d="M47.1652 57.2953C46.4752 57.4253 45.7152 57.4753 44.9352 57.3353C44.4952 57.2653 44.0752 57.1253 43.6352 56.9253C43.5352 56.8853 43.4452 56.8453 43.3552 56.7953C42.9652 56.5853 42.5752 56.3453 42.1852 56.0053C41.2352 55.2153 40.3152 54.0253 39.4952 52.3053C38.6752 50.5853 37.9352 48.3353 37.3652 45.4153C36.2252 39.5753 36.6452 35.9653 37.7852 33.7753C37.8352 33.6653 37.9052 33.5653 37.9552 33.4553C38.1352 33.1753 38.3152 32.9053 38.5052 32.6753L38.5352 32.6253C38.6152 32.5353 38.7052 32.4453 38.7852 32.3553C39.6952 31.3953 40.7952 30.9153 41.8752 30.7053C46.5752 29.7753 50.3552 34.2553 52.0252 42.6553C53.6852 51.0153 51.9052 56.3453 47.1452 57.2853L47.1652 57.2953Z" fill="#221F20"/>
<path d="M40.0152 28.1654C40.3752 28.1054 40.8552 28.0554 41.0452 28.4454C41.2852 28.8154 41.0152 29.3554 40.5752 29.4054C39.8152 29.4754 39.5552 29.5554 39.1352 29.6854C37.4752 30.2654 36.3452 31.3554 35.6852 32.6554C35.3552 33.4254 34.1752 32.9254 34.5052 32.1454C35.5352 30.0054 37.6852 28.4754 40.0252 28.1554L40.0152 28.1654Z" fill="#221F20"/>
<path d="M53.6952 46.2451L49.3052 49.5651L53.5452 52.9051L53.6952 46.2451Z" fill="#F4BB24"/>
<path d="M67.3052 56.1254C66.6152 56.2554 65.8552 56.3054 65.0752 56.1654C64.6352 56.0954 64.2152 55.9554 63.7752 55.7554C63.6752 55.7154 63.5852 55.6754 63.4952 55.6254C63.1052 55.4154 62.7152 55.1754 62.3252 54.8354C61.3752 54.0454 60.4552 52.8554 59.6352 51.1354C58.8152 49.4154 58.0752 47.1654 57.5052 44.2454C56.3652 38.4054 56.7852 34.7954 57.9252 32.6054C57.9752 32.4954 58.0452 32.3954 58.0952 32.2854C58.2752 32.0054 58.4552 31.7354 58.6452 31.5054L58.6752 31.4554C58.7552 31.3654 58.8452 31.2754 58.9252 31.1854C59.8352 30.2254 60.9352 29.7454 62.0152 29.5354C66.7152 28.6054 70.4952 33.0854 72.1652 41.4854C73.8252 49.8454 72.0452 55.1754 67.2852 56.1154L67.3052 56.1254Z" fill="#221F20"/>
<path d="M67.9252 27.2054C68.2252 27.4154 68.5952 27.7154 68.4552 28.1254C68.3652 28.5554 67.7852 28.7454 67.4452 28.4754C66.8652 27.9854 66.6252 27.8554 66.2252 27.6554C64.6452 26.8954 63.0652 26.8654 61.6852 27.3154C60.9052 27.6254 60.4252 26.4354 61.2052 26.1154C63.4452 25.3354 66.0452 25.7654 67.9352 27.1954L67.9252 27.2054Z" fill="#221F20"/>
<path d="M73.8352 45.0654L69.4452 48.3854L73.6852 51.7254L73.8352 45.0654Z" fill="#F4BB24"/>
</svg>
